<svg width="243" height="243" viewBox="0 0 243 243" fill="none" xmlns="http://www.w3.org/2000/svg">
<path d="M104.854 226.95C105.023 227.685 105.273 228.353 105.604 228.953C105.928 229.56 106.333 230.089 106.82 230.539C107.3 230.989 107.859 231.349 108.498 231.621C109.137 231.892 109.849 232.063 110.634 232.134C111.921 232.25 113.122 232.023 114.236 231.452C115.35 230.882 116.276 229.978 117.015 228.74C117.754 227.501 118.208 225.941 118.378 224.06C118.547 222.178 118.375 220.562 117.862 219.21C117.349 217.859 116.585 216.803 115.569 216.041C114.554 215.28 113.374 214.838 112.03 214.717C110.785 214.605 109.665 214.772 108.67 215.217C107.666 215.669 106.855 216.359 106.237 217.287C105.611 218.222 105.238 219.354 105.118 220.684L104.327 220.442L110.863 221.03L110.653 223.364L102.377 222.62L102.587 220.285C102.748 218.496 103.27 216.974 104.153 215.72C105.029 214.465 106.168 213.534 107.571 212.925C108.966 212.324 110.526 212.1 112.252 212.256C114.176 212.429 115.826 213.034 117.202 214.07C118.57 215.106 119.586 216.495 120.249 218.238C120.906 219.98 121.13 221.997 120.924 224.289C120.769 226.008 120.4 227.533 119.817 228.864C119.226 230.201 118.463 231.316 117.527 232.209C116.591 233.101 115.519 233.754 114.313 234.166C113.106 234.578 111.806 234.721 110.413 234.595C109.267 234.492 108.214 234.223 107.255 233.787C106.288 233.358 105.444 232.793 104.723 232.094C103.993 231.401 103.406 230.595 102.961 229.678C102.515 228.768 102.241 227.777 102.138 226.705L104.854 226.95Z" fill="#130719"/>
<path d="M96.5262 209.241C98.0461 209.661 99.2646 210.358 100.182 211.333C101.09 212.313 101.675 213.491 101.936 214.868C102.188 216.249 102.092 217.747 101.646 219.363C101.2 220.979 100.512 222.321 99.5836 223.391C98.646 224.466 97.5512 225.203 96.2991 225.601C95.0384 226.005 93.696 226.01 92.272 225.617C91.4504 225.39 90.6769 225.03 89.9515 224.535C89.226 224.04 88.6197 223.394 88.1325 222.596C87.6434 221.805 87.3426 220.853 87.2301 219.739C87.1176 218.625 87.2645 217.332 87.6708 215.86L87.9542 214.833L100.113 218.188L99.5351 220.283L89.8407 217.608C89.595 218.498 89.5539 219.341 89.7172 220.138C89.8736 220.932 90.2213 221.621 90.7602 222.205C91.2923 222.786 91.9965 223.198 92.8728 223.44C93.8381 223.706 94.7395 223.697 95.577 223.413C96.4057 223.133 97.1131 222.665 97.6994 222.009C98.2857 221.353 98.6988 220.59 98.9388 219.721L99.3242 218.324C99.653 217.133 99.7263 216.066 99.5442 215.125C99.3533 214.188 98.9476 213.402 98.3273 212.766C97.705 212.138 96.9044 211.689 95.9253 211.418C95.2886 211.243 94.689 211.173 94.1264 211.209C93.555 211.25 93.031 211.401 92.5543 211.659C92.0758 211.925 91.6582 212.304 91.3017 212.795L89.1416 211.491C89.6072 210.765 90.2142 210.181 90.9624 209.739C91.7087 209.304 92.5561 209.037 93.5044 208.938C94.4509 208.845 95.4582 208.946 96.5262 209.241Z" fill="#130719"/>
<path d="M70.2837 216.693L71.2082 214.774L78.8485 218.453L77.924 220.373L70.2837 216.693ZM73.9962 222.833L71.731 221.742L78.4981 207.69C78.8062 207.05 78.9446 206.525 78.9131 206.116C78.8721 205.71 78.7306 205.382 78.4887 205.131C78.2372 204.884 77.9451 204.68 77.6124 204.52C77.3628 204.4 77.1519 204.314 76.9796 204.263C76.8042 204.218 76.6639 204.181 76.5587 204.154L77.0779 201.898C77.2592 201.914 77.5013 201.96 77.8042 202.035C78.1102 202.103 78.4743 202.239 78.8966 202.443C79.5365 202.751 80.0974 203.19 80.5792 203.761C81.0545 204.329 81.3582 204.992 81.4902 205.749C81.6157 206.503 81.472 207.309 81.0591 208.166L73.9962 222.833Z" fill="#130719"/>
<path d="M50.5114 194.306L57.6264 187.503L59.3639 189.32L43.5938 204.398L41.8563 202.581L47.6469 197.044L47.4996 196.89C46.6237 197.197 45.7411 197.245 44.8516 197.034C43.9522 196.823 43.0583 196.253 42.1699 195.324C41.3993 194.518 40.8862 193.658 40.6304 192.743C40.3695 191.832 40.4107 190.894 40.7539 189.927C41.087 188.96 41.7618 187.991 42.7782 187.019L50.2937 179.833L52.0311 181.651L44.6389 188.718C43.6995 189.617 43.2062 190.555 43.1592 191.533C43.102 192.512 43.4833 193.429 44.303 194.287C44.8723 194.882 45.5085 195.296 46.2116 195.528C46.9098 195.754 47.6302 195.773 48.3729 195.584C49.1107 195.389 49.8235 194.963 50.5114 194.306Z" fill="#130719"/>
<path d="M44.8313 171.496C45.6451 172.729 46.0658 174.004 46.0933 175.322C46.1168 176.634 45.7732 177.899 45.0625 179.117C44.3478 180.329 43.2851 181.401 41.8744 182.332C40.4518 183.271 39.0398 183.833 37.6384 184.018C36.2331 184.197 34.9319 184.017 33.7347 183.48C32.5336 182.937 31.5261 182.049 30.7123 180.816C29.8985 179.583 29.4798 178.31 29.4562 176.998C29.4288 175.68 29.7753 174.413 30.4959 173.197C31.2126 171.975 32.2823 170.895 33.7048 169.956C35.1155 169.025 36.5206 168.472 37.92 168.297C39.3154 168.116 40.6137 168.297 41.8148 168.841C43.012 169.378 44.0175 170.263 44.8313 171.496ZM42.9464 172.74C42.3282 171.804 41.5795 171.191 40.7003 170.904C39.8211 170.616 38.8944 170.585 37.9203 170.811C36.9462 171.037 36.0027 171.452 35.0899 172.054C34.1771 172.657 33.4224 173.363 32.8257 174.174C32.2291 174.985 31.8873 175.853 31.8004 176.779C31.7134 177.704 31.979 178.635 32.5972 179.571C33.2154 180.508 33.9671 181.118 34.8522 181.402C35.7373 181.686 36.6699 181.713 37.65 181.483C38.6301 181.253 39.5765 180.836 40.4893 180.234C41.4021 179.631 42.1539 178.927 42.7446 178.12C43.3353 177.313 43.6711 176.449 43.7522 175.527C43.8332 174.606 43.5646 173.677 42.9464 172.74Z" fill="#130719"/>
<path d="M19.9273 159.481L21.8865 158.643L25.2194 166.441L23.2602 167.279L19.9273 159.481ZM18.6838 166.547L17.6957 164.235L32.0372 158.105C32.6902 157.826 33.1396 157.522 33.3852 157.193C33.6214 156.86 33.7309 156.52 33.7135 156.172C33.6868 155.82 33.6009 155.475 33.4557 155.135C33.3468 154.88 33.2445 154.677 33.1486 154.525C33.0461 154.376 32.9642 154.256 32.9027 154.167L34.7785 152.809C34.9043 152.94 35.0566 153.134 35.2354 153.39C35.4207 153.643 35.6055 153.985 35.7897 154.416C36.0688 155.069 36.202 155.769 36.1891 156.516C36.1735 157.256 35.9663 157.955 35.5674 158.612C35.1658 159.262 34.5274 159.775 33.6523 160.149L18.6838 166.547Z" fill="#130719"/>
<path d="M29.7751 125.448C29.8363 126.81 29.5462 128.029 28.9048 129.102C28.2563 130.177 27.3138 131.037 26.0773 131.682C24.8337 132.328 23.3464 132.69 21.6151 132.768C19.8981 132.845 18.3949 132.617 17.1055 132.085C15.8162 131.553 14.8038 130.777 14.0684 129.758C13.333 128.739 12.9344 127.541 12.8726 126.165C12.8248 125.1 12.9644 124.252 13.2915 123.618C13.6111 122.978 13.9871 122.485 14.4194 122.139C14.8443 121.786 15.1945 121.51 15.47 121.313L15.4605 121.1L7.41462 121.462L7.30182 118.95L29.098 117.971L29.207 120.398L26.6953 120.51L26.7087 120.808C27.015 120.979 27.4028 121.225 27.8722 121.545C28.3345 121.866 28.7572 122.334 29.1403 122.949C29.5163 123.565 29.7279 124.398 29.7751 125.448ZM27.5035 125.209C27.4583 124.201 27.1575 123.362 26.6013 122.69C26.0379 122.019 25.2798 121.523 24.327 121.203C23.3671 120.884 22.2699 120.752 21.0353 120.807C19.815 120.862 18.7551 121.087 17.8558 121.483C16.9494 121.879 16.2563 122.437 15.7767 123.155C15.29 123.874 15.0696 124.744 15.1155 125.765C15.1633 126.83 15.4762 127.704 16.0544 128.389C16.6252 129.067 17.3833 129.563 18.3287 129.876C19.2667 130.182 20.3104 130.31 21.4598 130.258C22.6234 130.206 23.6726 129.981 24.6074 129.583C25.5348 129.179 26.263 128.613 26.7919 127.886C27.3135 127.151 27.5507 126.259 27.5035 125.209Z" fill="#130719"/>
<path d="M30.5552 108.269C30.3435 109.831 29.8161 111.132 28.9729 112.172C28.1236 113.204 27.0346 113.941 25.7059 114.385C24.3712 114.82 22.8733 114.926 21.2123 114.701C19.5514 114.476 18.1285 113.975 16.9436 113.198C15.7527 112.413 14.8757 111.427 14.3126 110.24C13.7435 109.045 13.558 107.715 13.7563 106.251C13.8707 105.407 14.1245 104.592 14.5175 103.806C14.9106 103.021 15.4696 102.334 16.1945 101.744C16.9124 101.153 17.8159 100.727 18.9048 100.466C19.9937 100.205 21.2948 100.177 22.8079 100.382L23.8636 100.525L22.1705 113.024L20.0168 112.733L21.3668 102.767C20.4519 102.643 19.6107 102.715 18.8432 102.984C18.0767 103.246 17.4406 103.683 16.9347 104.295C16.4299 104.9 16.1164 105.654 15.9944 106.554C15.86 107.547 15.99 108.439 16.3845 109.23C16.7729 110.014 17.3314 110.652 18.0602 111.145C18.789 111.638 19.6003 111.945 20.4941 112.066L21.9299 112.261C23.1545 112.427 24.2212 112.356 25.13 112.049C26.0327 111.734 26.7572 111.227 27.3036 110.527C27.8429 109.826 28.1807 108.972 28.3171 107.966C28.4057 107.311 28.3943 106.707 28.2828 106.155C28.1653 105.594 27.9462 105.095 27.6256 104.657C27.298 104.219 26.867 103.856 26.3325 103.568L27.3342 101.253C28.1163 101.617 28.7765 102.14 29.3148 102.822C29.8461 103.503 30.2246 104.307 30.4503 105.234C30.6689 106.159 30.7039 107.171 30.5552 108.269Z" fill="#130719"/>
<path d="M33.9361 93.4837C33.6157 94.4699 33.1391 95.3045 32.5065 95.9876C31.867 96.6685 31.1159 97.1302 30.253 97.3726C29.3834 97.6127 28.442 97.5682 27.4288 97.239C26.5371 96.9493 25.8715 96.5389 25.4317 96.0076C24.9852 95.4742 24.6987 94.8621 24.5721 94.1713C24.4456 93.4805 24.4199 92.7553 24.495 91.9955C24.5655 91.2269 24.6709 90.4658 24.8112 89.7123C24.9969 88.7272 25.1548 87.9309 25.2849 87.3235C25.4105 86.7071 25.4395 86.2386 25.372 85.9179C25.3066 85.5905 25.0814 85.3643 24.6964 85.2392L24.6153 85.2128C23.6156 84.888 22.75 84.9092 22.0183 85.2763C21.2888 85.6367 20.7452 86.3675 20.3875 87.4685C20.0166 88.61 19.9757 89.5862 20.2649 90.3971C20.554 91.2079 20.9395 91.8372 21.4213 92.285L19.8733 94.2912C19.0593 93.5787 18.4986 92.7991 18.1913 91.9524C17.8793 91.0968 17.7492 90.2331 17.801 89.3613C17.8482 88.4805 17.9991 87.6483 18.2537 86.8648C18.4161 86.3649 18.6635 85.8105 18.9957 85.2016C19.3235 84.5837 19.7684 84.03 20.3307 83.5406C20.8952 83.0445 21.6114 82.7134 22.4793 82.5473C23.3473 82.3813 24.3993 82.4991 25.6354 82.9007L35.889 86.2323L35.1121 88.6234L33.0046 87.9387L32.9651 88.0603C33.2502 88.3321 33.5237 88.7197 33.7859 89.2231C34.048 89.7264 34.2121 90.3361 34.2781 91.0521C34.3442 91.768 34.2302 92.5786 33.9361 93.4837ZM31.9066 92.421C32.2139 91.4754 32.2871 90.618 32.1263 89.8488C31.9677 89.0729 31.6483 88.424 31.1682 87.9021C30.6903 87.3734 30.1271 87.0037 29.4787 86.793L27.2902 86.0819C27.3788 86.2228 27.4178 86.4819 27.4072 86.8593C27.3921 87.2278 27.3492 87.647 27.2787 88.1169C27.2035 88.5779 27.125 89.0266 27.0429 89.4629C26.9563 89.8903 26.8882 90.2378 26.8386 90.5055C26.7177 91.1533 26.6607 91.777 26.6675 92.3766C26.6698 92.9673 26.7961 93.4863 27.0466 93.9336C27.2925 94.3719 27.7194 94.6898 28.3273 94.8874C29.1581 95.1573 29.8861 95.0541 30.5114 94.5777C31.1321 94.0923 31.5972 93.3735 31.9066 92.421Z" fill="#130719"/>
<path d="M21.6941 65.9593L40.9071 76.2982L39.7157 78.5122L20.5027 68.1733L21.6941 65.9593Z" fill="#130719"/>
<path d="M43.2453 50.9872L42.3369 53.1515C41.954 53.0279 41.5374 52.9637 41.0871 52.9588C40.6356 52.944 40.1721 53.0467 39.6966 53.2671C39.2211 53.4874 38.7553 53.8836 38.2992 54.4555C37.6748 55.2385 37.335 56.0348 37.2797 56.8446C37.2232 57.6444 37.4699 58.2635 38.0196 58.7019C38.5082 59.0916 39.0358 59.2217 39.6024 59.0921C40.169 58.9626 40.8479 58.5955 41.6389 57.9909L43.6198 56.4638C44.8096 55.5414 45.9141 55.0278 46.9333 54.923C47.9469 54.8139 48.9008 55.1158 49.7947 55.8287C50.5277 56.4132 51.0147 57.1468 51.2556 58.0293C51.501 58.9063 51.4914 59.8525 51.2267 60.8678C50.9621 61.8831 50.4334 62.8877 49.6408 63.8817C48.6002 65.1866 47.4557 66.0408 46.2074 66.4442C44.959 66.8477 43.6999 66.7293 42.43 66.089L43.4515 63.8513C44.2817 64.2227 45.066 64.2986 45.8044 64.0789C46.5472 63.8537 47.2397 63.3385 47.8818 62.5334C48.6124 61.6172 48.9982 60.7348 49.039 59.8862C49.0787 59.0276 48.8237 58.3791 48.274 57.9407C47.8298 57.5865 47.3337 57.4453 46.7859 57.5171C46.2325 57.5845 45.624 57.8805 44.9604 58.4051L42.7603 60.1388C41.5483 61.089 40.4316 61.6065 39.4101 61.6913C38.3876 61.7661 37.4348 61.4514 36.552 60.7473C35.8301 60.1717 35.3531 59.4597 35.1211 58.6116C34.8935 57.7578 34.9027 56.8522 35.1486 55.8946C35.3989 54.9314 35.8827 54.0001 36.6001 53.1005C37.6097 51.8345 38.68 51.0619 39.8109 50.7829C40.9463 50.4983 42.0911 50.5664 43.2453 50.9872Z" fill="#130719"/>
<path d="M73.6194 42.7806C72.7293 43.3124 71.8213 43.6274 70.8954 43.7256C69.9658 43.8176 69.0964 43.6711 68.2872 43.2859C67.4743 42.8946 66.7946 42.2417 66.2482 41.3271C65.7673 40.5223 65.5361 39.7753 65.5544 39.0859C65.5691 38.3904 65.7561 37.7409 66.1153 37.1375C66.4745 36.534 66.9323 35.9709 67.4887 35.4482C68.0476 34.9157 68.6277 34.4119 69.2291 33.9368C70.0171 33.3171 70.6599 32.8213 71.1575 32.4495C71.6576 32.068 71.9877 31.7342 72.1478 31.4483C72.314 31.1587 72.2933 30.8402 72.0857 30.4926L72.0419 30.4195C71.5028 29.5171 70.837 28.9635 70.0444 28.7586C69.258 28.5501 68.3678 28.7427 67.374 29.3365C66.3436 29.9521 65.6706 30.6604 65.3548 31.4612C65.0391 32.2621 64.9153 32.9897 64.9835 33.6439L62.4978 34.1362C62.3537 33.0641 62.4444 32.1081 62.7699 31.2682C63.0979 30.4187 63.5682 29.6826 64.1809 29.0601C64.7959 28.4279 65.4571 27.9005 66.1643 27.478C66.6155 27.2084 67.1665 26.9536 67.8174 26.7137C68.4707 26.464 69.1701 26.3398 69.9155 26.3412C70.6671 26.339 71.4243 26.5608 72.1871 27.0068C72.95 27.4528 73.6648 28.2337 74.3314 29.3494L79.8611 38.6046L77.7028 39.8941L76.5662 37.9919L76.4565 38.0574C76.4923 38.4497 76.4433 38.9216 76.3095 39.4731C76.1757 40.0247 75.8982 40.5917 75.4769 41.1744C75.0556 41.757 74.4364 42.2924 73.6194 42.7806ZM72.7903 40.645C73.6438 40.135 74.2631 39.5375 74.6481 38.8525C75.0391 38.1638 75.2256 37.465 75.2074 36.7561C75.1953 36.0435 75.0144 35.3946 74.6647 34.8093L73.4845 32.8339C73.4586 32.9983 73.3175 33.2191 73.0612 33.4963C72.8073 33.7638 72.4993 34.0513 72.1369 34.3588C71.7771 34.6565 71.4227 34.9427 71.0738 35.2173C70.7274 35.4822 70.4475 35.6991 70.234 35.868C69.7168 36.2763 69.2635 36.7085 68.8741 37.1645C68.4871 37.6108 68.2408 38.0848 68.1351 38.5864C68.0319 39.0783 68.1442 39.5986 68.4721 40.1473C68.9201 40.8973 69.5363 41.2985 70.3206 41.3512C71.1074 41.394 71.9306 41.1587 72.7903 40.645Z" fill="#130719"/>
<path d="M87.434 17.9761L88.1827 19.9709L80.2433 22.9506L79.4946 20.9558L87.434 17.9761ZM80.4311 16.4169L82.785 15.5334L88.2652 30.1355C88.5148 30.8005 88.7984 31.263 89.116 31.5231C89.4377 31.774 89.7728 31.8986 90.1211 31.8969C90.4735 31.886 90.8226 31.8156 91.1684 31.6859C91.4277 31.5885 91.6355 31.4954 91.7918 31.4064C91.9455 31.3108 92.0685 31.2342 92.1608 31.1769L93.4331 33.1117C93.296 33.2314 93.0957 33.3749 92.8322 33.542C92.5713 33.7158 92.2213 33.8851 91.7825 34.0498C91.1175 34.2994 90.4123 34.401 89.6666 34.3546C88.9276 34.3058 88.2388 34.0674 87.6003 33.6394C86.9684 33.209 86.4853 32.5483 86.1509 31.6573L80.4311 16.4169Z" fill="#130719"/>
<path d="M125.795 12.6364V14.767L117.315 14.767V12.6364L125.795 12.6364ZM119.787 8.71591L122.301 8.71591V24.3125C122.301 25.0227 122.404 25.5554 122.61 25.9105C122.823 26.2585 123.093 26.4929 123.42 26.6136C123.753 26.7273 124.105 26.7841 124.474 26.7841C124.751 26.7841 124.978 26.7699 125.156 26.7415C125.334 26.706 125.476 26.6776 125.582 26.6563L126.094 28.9148C125.923 28.9787 125.685 29.0426 125.38 29.1065C125.074 29.1776 124.687 29.2131 124.219 29.2131C123.508 29.2131 122.812 29.0604 122.13 28.755C121.456 28.4496 120.895 27.9844 120.447 27.3594C120.007 26.7344 119.787 25.946 119.787 24.9943V8.71591Z" fill="#130719"/>
<path d="M135.53 20.0703L133.772 29.7559L131.298 29.307L135.194 7.8394L137.668 8.28833L136.237 16.1709L136.447 16.209C136.975 15.4459 137.661 14.8882 138.505 14.536C139.356 14.1781 140.415 14.1139 141.68 14.3434C142.777 14.5425 143.698 14.937 144.442 15.5269C145.188 16.1098 145.707 16.8932 145.997 17.8771C146.296 18.8553 146.32 20.0362 146.069 21.4199L144.212 31.6505L141.739 31.2016L143.565 21.1387C143.797 19.8598 143.644 18.8108 143.107 17.9915C142.578 17.1665 141.731 16.6481 140.564 16.4363C139.753 16.2892 138.995 16.3285 138.29 16.5543C137.592 16.7813 136.998 17.1896 136.509 17.7793C136.026 18.3702 135.7 19.1339 135.53 20.0703Z" fill="#130719"/>
<path d="M153.937 35.3372C152.461 34.7832 151.31 33.9794 150.484 32.926C149.667 31.8684 149.191 30.6426 149.054 29.2486C148.926 27.8504 149.157 26.3666 149.746 24.7974C150.335 23.2281 151.14 21.9523 152.161 20.9701C153.191 19.9836 154.347 19.348 155.63 19.0633C156.922 18.7743 158.259 18.8894 159.643 19.4085C160.44 19.708 161.178 20.1367 161.857 20.6946C162.535 21.2526 163.081 21.9506 163.494 22.7886C163.911 23.62 164.125 24.5955 164.137 25.7152C164.149 26.8349 163.887 28.1096 163.351 29.5392L162.976 30.5366L151.167 26.1045L151.931 24.0698L161.346 27.6035C161.67 26.7391 161.787 25.9028 161.696 25.0948C161.611 24.2893 161.327 23.5719 160.842 22.9425C160.365 22.3156 159.7 21.8424 158.849 21.523C157.911 21.1711 157.013 21.0994 156.153 21.3078C155.303 21.5121 154.556 21.9146 153.913 22.5154C153.271 23.1163 152.791 23.8389 152.474 24.6834L151.965 26.0399C151.531 27.1969 151.362 28.2525 151.459 29.2068C151.565 30.157 151.899 30.9763 152.46 31.6647C153.023 32.3465 153.78 32.8658 154.731 33.2227C155.349 33.4548 155.94 33.5779 156.504 33.5922C157.077 33.6024 157.612 33.4998 158.11 33.2847C158.611 33.0629 159.06 32.7234 159.46 32.2663L161.494 33.7582C160.965 34.4396 160.308 34.9669 159.524 35.3399C158.741 35.7063 157.873 35.8964 156.92 35.9103C155.969 35.9175 154.975 35.7265 153.937 35.3372Z" fill="#130719"/>
<path d="M196.93 44.9673C197.225 44.2729 197.415 43.5856 197.5 42.9054C197.595 42.2245 197.578 41.5587 197.449 40.908C197.325 40.262 197.084 39.6415 196.727 39.0465C196.369 38.4515 195.894 37.8946 195.3 37.3759C194.327 36.5255 193.222 36.0035 191.986 35.81C190.75 35.6165 189.469 35.8035 188.143 36.3711C186.817 36.9387 185.533 37.9338 184.29 39.3565C183.047 40.7792 182.236 42.1879 181.857 43.5826C181.477 44.9772 181.475 46.2811 181.848 47.4941C182.222 48.7071 182.917 49.7576 183.933 50.6454C184.875 51.4679 185.879 51.9916 186.946 52.2166C188.023 52.441 189.085 52.3593 190.131 51.9717C191.187 51.5834 192.154 50.8865 193.033 49.8809L193.53 50.542L188.588 46.2243L190.13 44.4593L196.388 49.9265L194.846 51.6915C193.664 53.0447 192.347 53.969 190.895 54.4646C189.449 54.9647 187.98 55.0487 186.488 54.7164C185.006 54.3835 183.612 53.6469 182.307 52.5067C180.852 51.2357 179.873 49.7766 179.37 48.1294C178.871 46.4868 178.866 44.7657 179.354 42.9661C179.847 41.1711 180.85 39.4072 182.364 37.6743C183.5 36.3746 184.695 35.3578 185.949 34.6239C187.213 33.8894 188.486 33.4361 189.768 33.2641C191.05 33.0921 192.3 33.194 193.519 33.5699C194.737 33.9459 195.873 34.5941 196.926 35.5146C197.793 36.2716 198.486 37.1083 199.006 38.0246C199.536 38.9402 199.887 39.893 200.059 40.883C200.242 41.8724 200.244 42.8689 200.065 43.8725C199.89 44.8709 199.53 45.8339 198.983 46.7617L196.93 44.9673Z" fill="#130719"/>
<path d="M211.096 51.0173L194.038 64.6207L192.471 62.6551L209.529 49.0516L211.096 51.0173Z" fill="#130719"/>
<path d="M201.608 76.8499C201.117 75.9368 200.843 75.0156 200.786 74.0862C200.736 73.1535 200.921 72.2915 201.342 71.5004C201.77 70.7058 202.452 70.0561 203.391 69.5513C204.216 69.1071 204.973 68.9095 205.661 68.9588C206.355 69.0047 206.995 69.2206 207.582 69.6065C208.169 69.9925 208.711 70.4751 209.208 71.0544C209.715 71.6365 210.192 72.2387 210.64 72.8607C211.223 73.6758 211.69 74.3402 212.039 74.854C212.398 75.3707 212.716 75.7155 212.995 75.8882C213.277 76.0672 213.596 76.0608 213.952 75.869L214.027 75.8286C214.953 75.3305 215.536 74.6902 215.776 73.9076C216.02 73.1313 215.867 72.2334 215.319 71.214C214.75 70.157 214.073 69.4529 213.287 69.1015C212.501 68.7501 211.779 68.5939 211.123 68.6326L210.743 66.1274C211.82 66.0314 212.771 66.1649 213.595 66.5278C214.429 66.8936 215.144 67.3965 215.738 68.0364C216.342 68.6792 216.839 69.3634 217.23 70.0889C217.479 70.5517 217.708 71.1136 217.919 71.7746C218.139 72.4384 218.232 73.1427 218.197 73.8873C218.165 74.6382 217.91 75.3847 217.43 76.1268C216.95 76.8689 216.138 77.5479 214.994 78.1638L205.5 83.2727L204.308 81.0587L206.26 80.0086L206.199 79.896C205.805 79.9142 205.336 79.8441 204.791 79.6857C204.246 79.5273 203.692 79.2246 203.129 78.7776C202.566 78.3305 202.059 77.688 201.608 76.8499ZM203.778 76.1174C204.25 76.993 204.819 77.6385 205.486 78.0538C206.156 78.4753 206.846 78.6929 207.555 78.7066C208.267 78.7265 208.924 78.5749 209.524 78.2518L211.551 77.1614C211.388 77.1281 211.173 76.9773 210.908 76.7088C210.652 76.4432 210.379 76.1225 210.088 75.7468C209.806 75.3739 209.536 75.007 209.278 74.6462C209.029 74.2883 208.825 73.9989 208.665 73.778C208.281 73.243 207.869 72.7708 207.431 72.3613C207.003 71.9547 206.54 71.6874 206.044 71.5593C205.557 71.4341 205.032 71.523 204.469 71.8259C203.7 72.2398 203.272 72.8374 203.184 73.6186C203.106 74.4026 203.304 75.2356 203.778 76.1174Z" fill="#130719"/>
<path d="M205.661 82.8354L221.224 77.7788L221.974 80.0889L219.543 80.879L219.608 81.0816C220.545 81.1359 221.36 81.4498 222.054 82.0233C222.755 82.5946 223.27 83.3869 223.599 84.4001C223.933 85.4268 223.977 86.357 223.733 87.1906C223.497 88.0288 223.027 88.7754 222.321 89.4304L222.374 89.5925C223.307 89.7299 224.14 90.1203 224.871 90.7637C225.61 91.4049 226.16 92.2828 226.522 93.3973C226.975 94.7888 226.909 96.0685 226.325 97.2365C225.748 98.4022 224.544 99.2825 222.713 99.8773L212.298 103.262L211.521 100.87L221.937 97.4861C223.085 97.113 223.803 96.5323 224.092 95.7439C224.381 94.9555 224.388 94.1357 224.111 93.2847C223.756 92.1904 223.149 91.4502 222.292 91.0641C221.441 90.6759 220.513 90.6452 219.506 90.9723L209.374 94.2643L208.584 91.8327L219.243 88.3694C220.128 88.0819 220.747 87.5633 221.101 86.8135C221.462 86.0616 221.495 85.2331 221.201 84.328C220.999 83.7065 220.645 83.1794 220.138 82.7466C219.634 82.3205 219.034 82.0374 218.339 81.8974C217.653 81.7619 216.928 81.8182 216.165 82.0662L206.438 85.2266L205.661 82.8354Z" fill="#130719"/>
<path d="M227.909 132.703C228.636 132.501 229.292 132.221 229.877 131.864C230.469 131.513 230.978 131.085 231.406 130.578C231.834 130.078 232.169 129.503 232.412 128.853C232.654 128.202 232.793 127.484 232.828 126.696C232.886 125.405 232.606 124.215 231.986 123.128C231.367 122.041 230.422 121.156 229.151 120.474C227.881 119.791 226.302 119.407 224.415 119.322C222.528 119.238 220.921 119.482 219.594 120.055C218.267 120.628 217.246 121.439 216.531 122.488C215.815 123.536 215.427 124.734 215.367 126.082C215.311 127.331 215.527 128.443 216.017 129.418C216.513 130.4 217.239 131.179 218.194 131.755C219.156 132.338 220.304 132.66 221.638 132.72L221.431 133.521L221.726 126.965L224.067 127.07L223.694 135.372L221.353 135.266C219.558 135.186 218.014 134.733 216.722 133.907C215.429 133.088 214.447 131.992 213.777 130.618C213.113 129.252 212.82 127.703 212.898 125.972C212.984 124.042 213.515 122.366 214.488 120.946C215.462 119.532 216.804 118.455 218.515 117.714C220.226 116.98 222.231 116.665 224.53 116.768C226.254 116.846 227.794 117.146 229.149 117.669C230.512 118.199 231.66 118.912 232.594 119.807C233.528 120.702 234.227 121.743 234.693 122.93C235.159 124.117 235.36 125.409 235.298 126.807C235.246 127.956 235.024 129.02 234.632 129.998C234.246 130.983 233.72 131.851 233.054 132.603C232.394 133.363 231.616 133.986 230.72 134.471C229.83 134.958 228.853 135.276 227.787 135.427L227.909 132.703Z" fill="#130719"/>
<path d="M210.832 140.572C211.063 139.561 211.463 138.687 212.032 137.95C212.608 137.214 213.314 136.687 214.152 136.369C214.997 136.051 215.938 136.011 216.977 136.248C217.891 136.457 218.591 136.806 219.076 137.296C219.569 137.787 219.909 138.371 220.097 139.048C220.285 139.724 220.375 140.444 220.369 141.208C220.367 141.98 220.331 142.747 220.259 143.51C220.162 144.508 220.076 145.315 220.001 145.932C219.931 146.557 219.944 147.026 220.04 147.339C220.135 147.66 220.379 147.865 220.774 147.955L220.857 147.974C221.882 148.208 222.742 148.109 223.438 147.678C224.132 147.254 224.608 146.477 224.866 145.348C225.133 144.178 225.086 143.202 224.725 142.421C224.364 141.639 223.924 141.047 223.404 140.644L224.766 138.507C225.641 139.144 226.269 139.87 226.651 140.686C227.038 141.51 227.245 142.358 227.272 143.231C227.304 144.113 227.228 144.955 227.045 145.758C226.928 146.271 226.731 146.845 226.455 147.481C226.184 148.126 225.79 148.718 225.274 149.255C224.756 149.8 224.073 150.194 223.223 150.437C222.374 150.68 221.315 150.657 220.048 150.368L209.537 147.969L210.097 145.518L212.257 146.011L212.286 145.886C211.977 145.641 211.67 145.28 211.364 144.802C211.058 144.324 210.84 143.732 210.71 143.024C210.58 142.317 210.62 141.5 210.832 140.572ZM212.949 141.448C212.728 142.418 212.731 143.278 212.961 144.03C213.188 144.788 213.564 145.406 214.089 145.883C214.613 146.367 215.207 146.684 215.871 146.836L218.115 147.348C218.014 147.216 217.952 146.961 217.929 146.584C217.911 146.216 217.916 145.795 217.944 145.32C217.977 144.854 218.015 144.401 218.058 143.959C218.106 143.525 218.143 143.173 218.168 142.902C218.23 142.246 218.231 141.62 218.171 141.023C218.116 140.435 217.943 139.929 217.654 139.506C217.37 139.092 216.916 138.813 216.293 138.671C215.441 138.477 214.725 138.645 214.145 139.175C213.57 139.714 213.172 140.472 212.949 141.448Z" fill="#130719"/>
<path d="M207.212 154.142L222.259 160.574L221.305 162.807L219.032 161.836L218.965 161.993C219.592 162.585 219.984 163.34 220.141 164.256C220.297 165.173 220.183 166.082 219.798 166.983C219.725 167.153 219.631 167.363 219.516 167.615C219.401 167.867 219.308 168.056 219.24 168.181L216.888 167.176C216.942 167.106 217.048 166.939 217.207 166.675C217.37 166.42 217.517 166.139 217.648 165.832C217.961 165.101 218.086 164.382 218.025 163.676C217.968 162.98 217.742 162.35 217.349 161.788C216.96 161.236 216.425 160.814 215.746 160.524L206.224 156.454L207.212 154.142Z" fill="#130719"/>
<path d="M198.248 170.774C198.819 169.908 199.501 169.231 200.292 168.74C201.09 168.254 201.937 168.009 202.833 168.005C203.735 168.005 204.631 168.298 205.52 168.885C206.302 169.402 206.835 169.974 207.117 170.603C207.406 171.236 207.519 171.903 207.457 172.602C207.395 173.302 207.227 174.008 206.953 174.72C206.68 175.442 206.376 176.148 206.041 176.837C205.6 177.737 205.235 178.463 204.948 179.014C204.663 179.574 204.511 180.018 204.491 180.345C204.467 180.678 204.623 180.956 204.961 181.179L205.032 181.226C205.91 181.805 206.75 182.015 207.553 181.856C208.352 181.703 209.07 181.143 209.708 180.177C210.369 179.175 210.668 178.245 210.605 177.386C210.542 176.528 210.338 175.819 209.993 175.259L212.019 173.737C212.614 174.64 212.947 175.541 213.018 176.439C213.091 177.346 212.987 178.214 212.705 179.04C212.425 179.877 212.058 180.639 211.604 181.326C211.315 181.765 210.929 182.234 210.446 182.732C209.966 183.241 209.39 183.656 208.718 183.978C208.042 184.306 207.263 184.435 206.382 184.364C205.501 184.293 204.519 183.9 203.434 183.184L194.436 177.244L195.821 175.146L197.671 176.367L197.741 176.26C197.539 175.922 197.378 175.476 197.259 174.921C197.14 174.366 197.144 173.735 197.271 173.027C197.398 172.319 197.724 171.568 198.248 170.774ZM199.921 172.338C199.374 173.168 199.075 173.975 199.025 174.759C198.972 175.549 199.107 176.26 199.431 176.891C199.751 177.527 200.196 178.034 200.765 178.409L202.685 179.677C202.637 179.518 202.668 179.257 202.779 178.896C202.892 178.545 203.045 178.153 203.238 177.718C203.433 177.294 203.628 176.882 203.823 176.484C204.02 176.095 204.178 175.778 204.297 175.533C204.586 174.941 204.807 174.355 204.96 173.775C205.115 173.205 205.131 172.671 205.009 172.173C204.888 171.685 204.561 171.265 204.028 170.913C203.299 170.432 202.57 170.337 201.84 170.63C201.113 170.933 200.473 171.502 199.921 172.338Z" fill="#130719"/>
<path d="M182.959 180.294C183.798 179.416 184.632 178.769 185.462 178.354C186.286 177.933 187.082 177.687 187.849 177.614C188.606 177.542 189.307 177.579 189.954 177.725L189.586 180.145C189.213 180.103 188.768 180.075 188.251 180.062C187.728 180.043 187.155 180.154 186.532 180.394C185.9 180.634 185.243 181.111 184.56 181.825C183.647 182.78 183.125 183.789 182.993 184.851C182.861 185.914 183.288 186.917 184.274 187.859L186.676 190.156L186.823 190.002C186.735 189.663 186.65 189.218 186.567 188.667C186.485 188.126 186.539 187.51 186.729 186.817C186.92 186.135 187.383 185.408 188.12 184.638C189.033 183.684 190.078 183.042 191.256 182.714C192.43 182.392 193.658 182.422 194.943 182.805C196.223 183.193 197.478 183.976 198.71 185.154C199.922 186.313 200.773 187.534 201.264 188.819C201.76 190.109 201.892 191.37 201.658 192.6C201.429 193.836 200.839 194.952 199.887 195.948C199.151 196.718 198.438 197.206 197.75 197.413C197.061 197.629 196.44 197.703 195.886 197.635C195.332 197.577 194.889 197.517 194.556 197.454L194.379 197.639L196.258 199.435L194.579 201.191L182.413 189.559C181.397 188.587 180.791 187.566 180.596 186.495C180.391 185.425 180.511 184.36 180.954 183.3C181.387 182.24 182.056 181.238 182.959 180.294ZM189.517 186.446C188.82 187.175 188.397 187.95 188.25 188.772C188.103 189.594 188.217 190.436 188.593 191.296C188.969 192.157 189.593 193.004 190.466 193.839C191.318 194.654 192.193 195.244 193.09 195.611C193.988 195.978 194.862 196.086 195.712 195.936C196.563 195.787 197.342 195.342 198.048 194.603C198.785 193.833 199.203 193.005 199.304 192.118C199.399 191.237 199.242 190.354 198.83 189.469C198.413 188.589 197.805 187.767 197.004 187.001C196.182 186.216 195.333 185.649 194.456 185.302C193.58 184.965 192.719 184.879 191.874 185.044C191.029 185.219 190.243 185.686 189.517 186.446Z" fill="#130719"/>
<path d="M174.854 195.407C176.129 194.481 177.434 193.963 178.768 193.854C180.101 193.755 181.387 194.032 182.625 194.686C183.863 195.35 184.974 196.359 185.959 197.715C186.944 199.071 187.566 200.446 187.823 201.839C188.079 203.243 187.972 204.558 187.503 205.785C187.032 207.023 186.2 208.075 185.004 208.944C184.315 209.445 183.551 209.824 182.711 210.083C181.872 210.342 180.989 210.413 180.061 210.296C179.138 210.186 178.206 209.827 177.265 209.22C176.324 208.614 175.404 207.693 174.507 206.457L173.881 205.595L184.085 198.181L185.363 199.94L177.227 205.851C177.769 206.598 178.403 207.156 179.128 207.525C179.846 207.898 180.602 208.056 181.394 207.998C182.18 207.945 182.941 207.651 183.677 207.117C184.487 206.528 185.042 205.818 185.342 204.985C185.64 204.163 185.715 203.318 185.568 202.451C185.42 201.583 185.081 200.785 184.551 200.055L183.7 198.883C182.973 197.883 182.185 197.161 181.335 196.716C180.484 196.281 179.616 196.108 178.733 196.197C177.853 196.292 177.003 196.638 176.181 197.235C175.647 197.623 175.218 198.048 174.896 198.511C174.572 198.983 174.363 199.486 174.268 200.02C174.177 200.56 174.213 201.123 174.374 201.708L172.009 202.584C171.731 201.767 171.653 200.928 171.774 200.068C171.899 199.213 172.219 198.384 172.732 197.581C173.25 196.783 173.957 196.059 174.854 195.407Z" fill="#130719"/>
</svg>
